<svg id="visual" viewBox="0 0 960 540" width="960" height="540" xmlns="http://www.w3.org/2000/svg" xmlns:xlink="http://www.w3.org/1999/xlink" version="1.1"><rect x="0" y="0" width="960" height="540" fill="#E35A2E"></rect><defs><linearGradient id="grad1_0" x1="43.8%" y1="0%" x2="100%" y2="100%"><stop offset="14.444444444444446%" stop-color="#fe8056" stop-opacity="1"></stop><stop offset="85.55555555555554%" stop-color="#fe8056" stop-opacity="1"></stop></linearGradient></defs><defs><linearGradient id="grad1_1" x1="43.8%" y1="0%" x2="100%" y2="100%"><stop offset="14.444444444444446%" stop-color="#fe8056" stop-opacity="1"></stop><stop offset="85.55555555555554%" stop-color="#f57349" stop-opacity="1"></stop></linearGradient></defs><defs><linearGradient id="grad1_2" x1="43.8%" y1="0%" x2="100%" y2="100%"><stop offset="14.444444444444446%" stop-color="#ec673b" stop-opacity="1"></stop><stop offset="85.55555555555554%" stop-color="#f57349" stop-opacity="1"></stop></linearGradient></defs><defs><linearGradient id="grad1_3" x1="43.8%" y1="0%" x2="100%" y2="100%"><stop offset="14.444444444444446%" stop-color="#ec673b" stop-opacity="1"></stop><stop offset="85.55555555555554%" stop-color="#e35a2e" stop-opacity="1"></stop></linearGradient></defs><defs><linearGradient id="grad2_0" x1="0%" y1="0%" x2="56.3%" y2="100%"><stop offset="14.444444444444446%" stop-color="#fe8056" stop-opacity="1"></stop><stop offset="85.55555555555554%" stop-color="#fe8056" stop-opacity="1"></stop></linearGradient></defs><defs><linearGradient id="grad2_1" x1="0%" y1="0%" x2="56.3%" y2="100%"><stop offset="14.444444444444446%" stop-color="#f57349" stop-opacity="1"></stop><stop offset="85.55555555555554%" stop-color="#fe8056" stop-opacity="1"></stop></linearGradient></defs><defs><linearGradient id="grad2_2" x1="0%" y1="0%" x2="56.3%" y2="100%"><stop offset="14.444444444444446%" stop-color="#f57349" stop-opacity="1"></stop><stop offset="85.55555555555554%" stop-color="#ec673b" stop-opacity="1"></stop></linearGradient></defs><defs><linearGradient id="grad2_3" x1="0%" y1="0%" x2="56.3%" y2="100%"><stop offset="14.444444444444446%" stop-color="#e35a2e" stop-opacity="1"></stop><stop offset="85.55555555555554%" stop-color="#ec673b" stop-opacity="1"></stop></linearGradient></defs><g transform="translate(960, 0)"><path d="M0 378C-26.9 382.1 -53.7 386.2 -73.7 370.7C-93.7 355.3 -106.9 320.2 -125.1 302.1C-143.4 284 -166.9 282.8 -179.4 268.6C-192 254.3 -193.8 227 -217.1 217.1C-240.4 207.2 -285.3 214.6 -300.2 200.6C-315 186.5 -299.7 150.8 -305.8 126.7C-311.9 102.5 -339.4 89.8 -355 70.6C-370.6 51.4 -374.3 25.7 -378 0L0 0Z" fill="#e86035"></path><path d="M0 283.5C-20.2 286.6 -40.3 289.7 -55.3 278.1C-70.3 266.4 -80.1 240.2 -93.9 226.6C-107.6 213 -125.1 212.1 -134.6 201.4C-144 190.7 -145.3 170.2 -162.8 162.8C-180.3 155.4 -214 161 -225.1 150.4C-236.2 139.9 -224.8 113.1 -229.4 95C-233.9 76.9 -254.6 67.4 -266.3 53C-278 38.6 -280.7 19.3 -283.5 0L0 0Z" fill="#f16d42"></path><path d="M0 189C-13.4 191.1 -26.9 193.1 -36.9 185.4C-46.9 177.6 -53.4 160.1 -62.6 151.1C-71.7 142 -83.4 141.4 -89.7 134.3C-96 127.2 -96.9 113.5 -108.5 108.5C-120.2 103.6 -142.7 107.3 -150.1 100.3C-157.5 93.2 -149.8 75.4 -152.9 63.3C-156 51.3 -169.7 44.9 -177.5 35.3C-185.3 25.7 -187.2 12.9 -189 0L0 0Z" fill="#fa7a4f"></path><path d="M0 94.5C-6.7 95.5 -13.4 96.6 -18.4 92.7C-23.4 88.8 -26.7 80.1 -31.3 75.5C-35.9 71 -41.7 70.7 -44.9 67.1C-48 63.6 -48.4 56.7 -54.3 54.3C-60.1 51.8 -71.3 53.7 -75 50.1C-78.7 46.6 -74.9 37.7 -76.5 31.7C-78 25.6 -84.9 22.5 -88.8 17.7C-92.7 12.9 -93.6 6.4 -94.5 0L0 0Z" fill="#fe8056"></path></g><g transform="translate(0, 540)"><path d="M0 -378C24.1 -370.8 48.2 -363.7 69.8 -351.1C91.5 -338.6 110.8 -320.7 124.8 -301.2C138.7 -281.7 147.2 -260.6 172.2 -257.8C197.2 -254.9 238.6 -270.3 265.2 -265.2C291.7 -260 303.4 -234.4 314.3 -210C325.2 -185.6 335.3 -162.5 332.6 -137.8C329.9 -113.1 314.3 -86.8 319.7 -63.6C325.2 -40.4 351.6 -20.2 378 0L0 0Z" fill="#e86035"></path><path d="M0 -283.5C18.1 -278.1 36.1 -272.7 52.4 -263.3C68.6 -253.9 83.1 -240.5 93.6 -225.9C104 -211.3 110.4 -195.5 129.2 -193.3C147.9 -191.2 179 -202.7 198.9 -198.9C218.8 -195 227.5 -175.8 235.7 -157.5C243.9 -139.2 251.5 -121.8 249.4 -103.3C247.4 -84.8 235.7 -65.1 239.8 -47.7C243.9 -30.3 263.7 -15.1 283.5 0L0 0Z" fill="#f16d42"></path><path d="M0 -189C12 -185.4 24.1 -181.8 34.9 -175.6C45.8 -169.3 55.4 -160.3 62.4 -150.6C69.3 -140.8 73.6 -130.3 86.1 -128.9C98.6 -127.5 119.3 -135.1 132.6 -132.6C145.9 -130 151.7 -117.2 157.1 -105C162.6 -92.8 167.7 -81.2 166.3 -68.9C164.9 -56.5 157.2 -43.4 159.9 -31.8C162.6 -20.2 175.8 -10.1 189 0L0 0Z" fill="#fa7a4f"></path><path d="M0 -94.5C6 -92.7 12 -90.9 17.5 -87.8C22.9 -84.6 27.7 -80.2 31.2 -75.3C34.7 -70.4 36.8 -65.2 43.1 -64.4C49.3 -63.7 59.7 -67.6 66.3 -66.3C72.9 -65 75.8 -58.6 78.6 -52.5C81.3 -46.4 83.8 -40.6 83.1 -34.4C82.5 -28.3 78.6 -21.7 79.9 -15.9C81.3 -10.1 87.9 -5 94.5 0L0 0Z" fill="#fe8056"></path></g></svg>