<svg width="300" height="258" viewBox="0 0 300 258" fill="none" xmlns="http://www.w3.org/2000/svg">
<g clip-path="url(#clip0_76_234)">
<path d="M180.424 105.195H69.7874C68.8667 105.194 67.984 104.828 67.3329 104.177C66.6819 103.526 66.3157 102.643 66.3147 101.723V17.7158C66.3157 16.795 66.6819 15.9123 67.3329 15.2612C67.9839 14.6102 68.8666 14.2439 69.7874 14.2428H205.588C206.509 14.2439 207.391 14.6102 208.042 15.2612C208.693 15.9123 209.06 16.795 209.061 17.7158V76.5584C209.052 84.1507 206.032 91.4297 200.664 96.7983C195.295 102.167 188.016 105.187 180.424 105.195Z" fill="white"/>
<path d="M180.424 105.51H69.7874C68.7833 105.509 67.8206 105.11 67.1106 104.4C66.4006 103.69 66.0012 102.727 66 101.723V17.716C66.0011 16.7119 66.4005 15.7491 67.1105 15.0391C67.8205 14.329 68.7832 13.9295 69.7874 13.9283H205.588C206.592 13.9295 207.555 14.3289 208.265 15.039C208.975 15.7491 209.374 16.7118 209.375 17.716V76.5586C209.367 84.2344 206.314 91.5933 200.886 97.0209C195.458 102.448 188.099 105.501 180.424 105.51ZM69.7874 15.1871C69.1169 15.1879 68.4742 15.4546 68.0002 15.9287C67.5261 16.4028 67.2595 17.0456 67.2588 17.716V101.723C67.2595 102.393 67.5262 103.036 68.0002 103.51C68.4742 103.984 69.117 104.251 69.7874 104.251H180.424C187.766 104.243 194.805 101.323 199.996 96.1312C205.188 90.9396 208.108 83.9007 208.117 76.5586V17.716C208.116 17.0456 207.849 16.4028 207.375 15.9287C206.901 15.4546 206.258 15.1879 205.588 15.1871H69.7874Z" fill="#CCCCCC"/>
<path d="M178.743 42.6138H96.6312C95.8773 42.6138 95.1544 42.3143 94.6213 41.7813C94.0883 41.2482 93.7888 40.5253 93.7888 39.7714C93.7888 39.0176 94.0883 38.2946 94.6213 37.7616C95.1544 37.2285 95.8773 36.9291 96.6312 36.9291H178.743C179.496 36.9302 180.218 37.2302 180.75 37.7631C181.282 38.296 181.581 39.0183 181.581 39.7714C181.581 40.5245 181.282 41.2468 180.75 41.7798C180.218 42.3127 179.496 42.6126 178.743 42.6138Z" fill="#CCCCCC"/>
<path d="M178.743 62.1938H96.6312C95.8773 62.1938 95.1544 61.8944 94.6213 61.3613C94.0883 60.8283 93.7888 60.1053 93.7888 59.3515C93.7888 58.5977 94.0883 57.8747 94.6213 57.3417C95.1544 56.8086 95.8773 56.5092 96.6312 56.5092H178.743C179.497 56.5092 180.22 56.8086 180.753 57.3417C181.286 57.8747 181.585 58.5977 181.585 59.3515C181.585 60.1053 181.286 60.8283 180.753 61.3613C180.22 61.8944 179.497 62.1938 178.743 62.1938Z" fill="#CCCCCC"/>
<path d="M178.743 82.3341H96.6312C95.8773 82.3341 95.1544 82.0346 94.6213 81.5016C94.0883 80.9685 93.7888 80.2456 93.7888 79.4917C93.7888 78.7379 94.0883 78.015 94.6213 77.4819C95.1544 76.9489 95.8773 76.6494 96.6312 76.6494H178.743C179.497 76.6494 180.22 76.9489 180.753 77.4819C181.286 78.015 181.585 78.7379 181.585 79.4917C181.585 80.2456 181.286 80.9685 180.753 81.5016C180.22 82.0346 179.497 82.3341 178.743 82.3341Z" fill="#CCCCCC"/>
<path d="M204.568 34.9303C213.943 34.9303 221.542 27.331 221.542 17.9568C221.542 8.58257 213.943 0.983276 204.568 0.983276C195.194 0.983276 187.595 8.58257 187.595 17.9568C187.595 27.331 195.194 34.9303 204.568 34.9303Z" fill="#6C63FF"/>
<path d="M202.252 26.7907C201.959 26.7907 201.67 26.7224 201.408 26.5913C201.146 26.4602 200.918 26.2699 200.742 26.0353L196.111 19.8611C195.962 19.6627 195.854 19.437 195.793 19.1968C195.731 18.9566 195.718 18.7067 195.753 18.4612C195.788 18.2158 195.871 17.9796 195.997 17.7663C196.123 17.553 196.291 17.3666 196.489 17.2178C196.687 17.0691 196.913 16.9608 197.153 16.8993C197.393 16.8378 197.643 16.8242 197.889 16.8592C198.134 16.8943 198.37 16.9774 198.584 17.1037C198.797 17.2301 198.983 17.3972 199.132 17.5955L202.162 21.6346L209.943 9.96334C210.22 9.54668 210.652 9.25744 211.143 9.15923C211.634 9.06103 212.144 9.1619 212.561 9.43967C212.978 9.71744 213.267 10.1494 213.365 10.6404C213.463 11.1314 213.362 11.6413 213.085 12.058L203.823 25.9499C203.656 26.2011 203.43 26.4086 203.166 26.5547C202.902 26.7009 202.607 26.7817 202.305 26.7901C202.287 26.7904 202.27 26.7907 202.252 26.7907Z" fill="white"/>
<path d="M139.588 178.159H28.9521C21.3597 178.15 14.0808 175.131 8.7122 169.762C3.3436 164.393 0.323751 157.114 0.315186 149.522V90.6791C0.316267 89.7584 0.682517 88.8757 1.33359 88.2246C1.98466 87.5735 2.8674 87.2073 3.78816 87.2062H139.588C140.509 87.2073 141.392 87.5735 142.043 88.2246C142.694 88.8757 143.06 89.7584 143.061 90.6791V174.686C143.06 175.607 142.694 176.489 142.043 177.141C141.392 177.792 140.509 178.158 139.588 178.159Z" fill="white"/>
<path d="M139.588 178.473H28.9521C21.2763 178.465 13.9174 175.412 8.48985 169.984C3.06227 164.556 0.0092154 157.197 0.000488281 149.522V90.6788C0.00162603 89.6746 0.401049 88.7118 1.11113 88.0018C1.8212 87.2917 2.78395 86.8923 3.78815 86.8911H139.588C140.593 86.8923 141.555 87.2917 142.265 88.0018C142.976 88.7118 143.375 89.6746 143.376 90.6788V174.686C143.375 175.69 142.976 176.653 142.265 177.363C141.555 178.073 140.593 178.472 139.588 178.473ZM3.78815 88.1499C3.11769 88.1507 2.47493 88.4174 2.00084 88.8915C1.52676 89.3656 1.26006 90.0083 1.25925 90.6788V149.522C1.26755 156.864 4.18784 163.903 9.37945 169.094C14.5711 174.286 21.61 177.206 28.9521 177.215H139.588C140.259 177.214 140.902 176.947 141.376 176.473C141.85 175.999 142.117 175.356 142.117 174.686V90.6788C142.117 90.0083 141.85 89.3656 141.376 88.8915C140.902 88.4174 140.259 88.1507 139.588 88.1499H3.78815Z" fill="#CCCCCC"/>
<path d="M112.744 115.577H30.6316C29.8778 115.577 29.1548 115.277 28.6218 114.744C28.0888 114.211 27.7893 113.488 27.7893 112.734C27.7893 111.981 28.0888 111.258 28.6218 110.725C29.1548 110.192 29.8778 109.892 30.6316 109.892H112.744C113.497 109.892 114.22 110.192 114.753 110.725C115.286 111.258 115.586 111.981 115.586 112.734C115.586 113.488 115.286 114.211 114.753 114.744C114.22 115.277 113.497 115.577 112.744 115.577Z" fill="#CCCCCC"/>
<path d="M112.744 135.158H30.6316C29.8778 135.158 29.1548 134.858 28.6218 134.325C28.0888 133.792 27.7893 133.069 27.7893 132.315C27.7893 131.562 28.0888 130.839 28.6218 130.306C29.1548 129.773 29.8778 129.473 30.6316 129.473H112.744C113.497 129.473 114.22 129.773 114.753 130.306C115.286 130.839 115.586 131.562 115.586 132.315C115.586 133.069 115.286 133.792 114.753 134.325C114.22 134.858 113.497 135.158 112.744 135.158Z" fill="#CCCCCC"/>
<path d="M112.744 155.298H30.6316C29.8778 155.298 29.1548 154.999 28.6218 154.466C28.0888 153.933 27.7893 153.21 27.7893 152.456C27.7893 151.702 28.0888 150.979 28.6218 150.446C29.1548 149.913 29.8778 149.613 30.6316 149.613H112.744C113.497 149.613 114.22 149.913 114.753 150.446C115.286 150.979 115.586 151.702 115.586 152.456C115.586 153.21 115.286 153.933 114.753 154.466C114.22 154.999 113.497 155.298 112.744 155.298Z" fill="#CCCCCC"/>
<path d="M139.742 108.568C149.116 108.568 156.716 100.969 156.716 91.5945C156.716 82.2203 149.116 74.621 139.742 74.621C130.368 74.621 122.769 82.2203 122.769 91.5945C122.769 100.969 130.368 108.568 139.742 108.568Z" fill="#6C63FF"/>
<path d="M137.426 100.429C137.133 100.429 136.844 100.36 136.581 100.229C136.319 100.098 136.091 99.9078 135.915 99.6733L131.285 93.499C131.136 93.3006 131.028 93.0749 130.966 92.8347C130.905 92.5946 130.891 92.3446 130.926 92.0992C130.961 91.8537 131.044 91.6176 131.171 91.4042C131.297 91.1909 131.464 91.0045 131.662 90.8558C131.861 90.707 132.087 90.5988 132.327 90.5373C132.567 90.4757 132.817 90.4621 133.062 90.4972C133.308 90.5323 133.544 90.6153 133.757 90.7417C133.971 90.868 134.157 91.0351 134.306 91.2335L137.335 95.2725L145.116 83.6013C145.394 83.1846 145.826 82.8954 146.317 82.7972C146.808 82.699 147.318 82.7998 147.734 83.0776C148.151 83.3554 148.44 83.7873 148.539 84.2783C148.637 84.7694 148.536 85.2793 148.258 85.6959L138.997 99.5878C138.829 99.8391 138.604 100.046 138.34 100.193C138.076 100.339 137.78 100.42 137.478 100.428C137.461 100.428 137.443 100.429 137.426 100.429Z" fill="white"/>
<path d="M277.439 256.463H122.633C115.041 256.454 107.762 253.434 102.393 248.066C97.0247 242.697 94.0049 235.418 93.9963 227.826V141.277C93.9977 140.09 94.4698 138.952 95.309 138.113C96.1483 137.274 97.2861 136.802 98.473 136.801H277.439C278.625 136.802 279.763 137.274 280.602 138.113C281.442 138.953 281.914 140.09 281.915 141.277V251.986C281.914 253.173 281.442 254.311 280.602 255.15C279.763 255.989 278.625 256.461 277.439 256.463Z" fill="white"/>
<path d="M277.438 256.777H122.632C114.957 256.768 107.598 253.715 102.17 248.288C96.7427 242.86 93.6896 235.501 93.6809 227.826V141.277C93.6823 140.007 94.1876 138.789 95.0858 137.891C95.9841 136.992 97.202 136.487 98.4723 136.486H277.438C278.708 136.487 279.926 136.992 280.824 137.891C281.722 138.789 282.227 140.007 282.229 141.277V251.986C282.227 253.256 281.722 254.474 280.824 255.372C279.926 256.27 278.708 256.776 277.438 256.777ZM98.4723 137.744C97.5357 137.745 96.6378 138.118 95.9756 138.78C95.3133 139.442 94.9408 140.34 94.9397 141.277V227.826C94.948 235.168 97.8683 242.207 103.06 247.398C108.251 252.59 115.29 255.51 122.632 255.518H277.438C278.374 255.517 279.272 255.145 279.934 254.482C280.597 253.82 280.969 252.922 280.97 251.986V141.277C280.969 140.34 280.597 139.443 279.934 138.78C279.272 138.118 278.374 137.745 277.438 137.744H98.4723Z" fill="#CCCCCC"/>
<path d="M242.061 174.088H133.849C133.357 174.089 132.869 173.993 132.414 173.805C131.959 173.617 131.546 173.341 131.197 172.993C130.849 172.645 130.573 172.232 130.384 171.777C130.196 171.322 130.099 170.835 130.099 170.343C130.099 169.85 130.196 169.363 130.384 168.908C130.573 168.453 130.849 168.04 131.197 167.692C131.546 167.344 131.959 167.069 132.414 166.881C132.869 166.693 133.357 166.596 133.849 166.597H242.061C242.553 166.596 243.041 166.693 243.496 166.881C243.951 167.069 244.364 167.344 244.713 167.692C245.061 168.04 245.337 168.453 245.526 168.908C245.715 169.363 245.812 169.85 245.812 170.343C245.812 170.835 245.715 171.322 245.526 171.777C245.337 172.232 245.061 172.645 244.713 172.993C244.364 173.341 243.951 173.617 243.496 173.805C243.041 173.993 242.553 174.089 242.061 174.088Z" fill="#CCCCCC"/>
<path d="M242.061 199.893H133.849C133.357 199.894 132.869 199.797 132.414 199.609C131.959 199.421 131.546 199.145 131.197 198.798C130.849 198.45 130.573 198.037 130.384 197.582C130.196 197.127 130.099 196.639 130.099 196.147C130.099 195.655 130.196 195.167 130.384 194.713C130.573 194.258 130.849 193.845 131.197 193.497C131.546 193.149 131.959 192.873 132.414 192.685C132.869 192.497 133.357 192.401 133.849 192.401H242.061C243.054 192.401 244.007 192.796 244.71 193.498C245.412 194.201 245.807 195.154 245.807 196.147C245.807 197.141 245.412 198.093 244.71 198.796C244.007 199.498 243.054 199.893 242.061 199.893Z" fill="#CCCCCC"/>
<path d="M242.061 226.435H133.85C132.856 226.435 131.903 226.04 131.201 225.338C130.498 224.635 130.104 223.682 130.104 222.689C130.104 221.696 130.498 220.743 131.201 220.04C131.903 219.338 132.856 218.943 133.85 218.943H242.061C242.554 218.943 243.041 219.039 243.496 219.227C243.951 219.415 244.365 219.691 244.713 220.039C245.061 220.387 245.338 220.8 245.526 221.254C245.715 221.709 245.812 222.197 245.812 222.689C245.812 223.181 245.715 223.669 245.526 224.124C245.338 224.578 245.061 224.992 244.713 225.339C244.365 225.687 243.951 225.963 243.496 226.151C243.041 226.339 242.554 226.435 242.061 226.435Z" fill="#CCCCCC"/>
<path d="M278 165.062C289.867 165.062 299.486 155.442 299.486 143.575C299.486 131.709 289.867 122.089 278 122.089C266.133 122.089 256.514 131.709 256.514 143.575C256.514 155.442 266.133 165.062 278 165.062Z" fill="#6C63FF"/>
<path d="M275.069 154.758C274.697 154.758 274.332 154.672 274 154.506C273.668 154.34 273.379 154.099 273.157 153.802L267.295 145.986C267.107 145.735 266.97 145.45 266.892 145.146C266.814 144.841 266.797 144.525 266.841 144.214C266.885 143.904 266.991 143.605 267.15 143.335C267.31 143.065 267.522 142.829 267.773 142.64C268.024 142.452 268.31 142.315 268.614 142.237C268.918 142.159 269.234 142.142 269.545 142.186C269.856 142.231 270.155 142.336 270.425 142.496C270.695 142.656 270.931 142.867 271.119 143.118L274.954 148.231L284.804 133.457C285.156 132.931 285.702 132.565 286.323 132.441C286.945 132.318 287.589 132.445 288.116 132.797C288.643 133.148 289.009 133.694 289.134 134.315C289.259 134.936 289.132 135.581 288.781 136.109L277.057 153.694C276.845 154.012 276.56 154.275 276.226 154.46C275.891 154.645 275.517 154.747 275.135 154.758C275.113 154.758 275.091 154.758 275.069 154.758Z" fill="white"/>
</g>
<defs>
<clipPath id="clip0_76_234">
<rect width="299.606" height="256.537" fill="white" transform="translate(0.000244141 0.983398)"/>
</clipPath>
</defs>
</svg>
